<mxfile host="app.diagrams.net" agent="Mozilla/5.0 (X11; Linux x86_64; rv:128.0) Gecko/20100101 Firefox/128.0" version="25.0.3">
  <diagram id="C5RBs43oDa-KdzZeNtuy" name="Page-1">
    <mxGraphModel dx="1257" dy="1723" grid="1" gridSize="10" guides="1" tooltips="1" connect="1" arrows="1" fold="1" page="1" pageScale="1" pageWidth="827" pageHeight="1169" math="0" shadow="0">
      <root>
        <mxCell id="WIyWlLk6GJQsqaUBKTNV-0" />
        <mxCell id="WIyWlLk6GJQsqaUBKTNV-1" parent="WIyWlLk6GJQsqaUBKTNV-0" />
        <mxCell id="fGu28cwDlgRmdk9_Jq6V-0" value="Contatto" style="swimlane;fontStyle=1;align=center;verticalAlign=top;childLayout=stackLayout;horizontal=1;startSize=26;horizontalStack=0;resizeParent=1;resizeParentMax=0;resizeLast=0;collapsible=1;marginBottom=0;whiteSpace=wrap;html=1;" parent="WIyWlLk6GJQsqaUBKTNV-1" vertex="1">
          <mxGeometry x="60" y="-840" width="180" height="538" as="geometry" />
        </mxCell>
        <mxCell id="2QzEvBa34yHxyn8QtlNz-18" value="- nome: String  [1]" style="text;strokeColor=none;fillColor=none;align=left;verticalAlign=top;spacingLeft=4;spacingRight=4;overflow=hidden;rotatable=0;points=[[0,0.5],[1,0.5]];portConstraint=eastwest;whiteSpace=wrap;html=1;" vertex="1" parent="fGu28cwDlgRmdk9_Jq6V-0">
          <mxGeometry y="26" width="180" height="28" as="geometry" />
        </mxCell>
        <mxCell id="2QzEvBa34yHxyn8QtlNz-26" value="- cognome: String  [1]" style="text;strokeColor=none;fillColor=none;align=left;verticalAlign=top;spacingLeft=4;spacingRight=4;overflow=hidden;rotatable=0;points=[[0,0.5],[1,0.5]];portConstraint=eastwest;whiteSpace=wrap;html=1;" vertex="1" parent="fGu28cwDlgRmdk9_Jq6V-0">
          <mxGeometry y="54" width="180" height="28" as="geometry" />
        </mxCell>
        <mxCell id="2QzEvBa34yHxyn8QtlNz-27" value="- email: String  [0..3]" style="text;strokeColor=none;fillColor=none;align=left;verticalAlign=top;spacingLeft=4;spacingRight=4;overflow=hidden;rotatable=0;points=[[0,0.5],[1,0.5]];portConstraint=eastwest;whiteSpace=wrap;html=1;" vertex="1" parent="fGu28cwDlgRmdk9_Jq6V-0">
          <mxGeometry y="82" width="180" height="28" as="geometry" />
        </mxCell>
        <mxCell id="2QzEvBa34yHxyn8QtlNz-28" value="- numeroTelefono: String  [1..3]" style="text;strokeColor=none;fillColor=none;align=left;verticalAlign=top;spacingLeft=4;spacingRight=4;overflow=hidden;rotatable=0;points=[[0,0.5],[1,0.5]];portConstraint=eastwest;whiteSpace=wrap;html=1;" vertex="1" parent="fGu28cwDlgRmdk9_Jq6V-0">
          <mxGeometry y="110" width="180" height="28" as="geometry" />
        </mxCell>
        <mxCell id="2QzEvBa34yHxyn8QtlNz-29" value="- tag: String  [1]" style="text;strokeColor=none;fillColor=none;align=left;verticalAlign=top;spacingLeft=4;spacingRight=4;overflow=hidden;rotatable=0;points=[[0,0.5],[1,0.5]];portConstraint=eastwest;whiteSpace=wrap;html=1;" vertex="1" parent="fGu28cwDlgRmdk9_Jq6V-0">
          <mxGeometry y="138" width="180" height="28" as="geometry" />
        </mxCell>
        <mxCell id="2QzEvBa34yHxyn8QtlNz-30" value="- foto: String  [1]" style="text;strokeColor=none;fillColor=none;align=left;verticalAlign=top;spacingLeft=4;spacingRight=4;overflow=hidden;rotatable=0;points=[[0,0.5],[1,0.5]];portConstraint=eastwest;whiteSpace=wrap;html=1;" vertex="1" parent="fGu28cwDlgRmdk9_Jq6V-0">
          <mxGeometry y="166" width="180" height="28" as="geometry" />
        </mxCell>
        <mxCell id="fGu28cwDlgRmdk9_Jq6V-2" value="" style="line;strokeWidth=1;fillColor=none;align=left;verticalAlign=middle;spacingTop=-1;spacingLeft=3;spacingRight=3;rotatable=0;labelPosition=right;points=[];portConstraint=eastwest;strokeColor=inherit;" parent="fGu28cwDlgRmdk9_Jq6V-0" vertex="1">
          <mxGeometry y="194" width="180" height="8" as="geometry" />
        </mxCell>
        <mxCell id="2QzEvBa34yHxyn8QtlNz-6" value="&lt;div&gt;+ setNome&lt;/div&gt;" style="text;strokeColor=none;fillColor=none;align=left;verticalAlign=top;spacingLeft=4;spacingRight=4;overflow=hidden;rotatable=0;points=[[0,0.5],[1,0.5]];portConstraint=eastwest;whiteSpace=wrap;html=1;" vertex="1" parent="fGu28cwDlgRmdk9_Jq6V-0">
          <mxGeometry y="202" width="180" height="28" as="geometry" />
        </mxCell>
        <mxCell id="2QzEvBa34yHxyn8QtlNz-7" value="&lt;div&gt;+ getNome&lt;br&gt;&lt;/div&gt;" style="text;strokeColor=none;fillColor=none;align=left;verticalAlign=top;spacingLeft=4;spacingRight=4;overflow=hidden;rotatable=0;points=[[0,0.5],[1,0.5]];portConstraint=eastwest;whiteSpace=wrap;html=1;" vertex="1" parent="fGu28cwDlgRmdk9_Jq6V-0">
          <mxGeometry y="230" width="180" height="28" as="geometry" />
        </mxCell>
        <mxCell id="2QzEvBa34yHxyn8QtlNz-8" value="&lt;div&gt;+ setCognome&lt;/div&gt;" style="text;strokeColor=none;fillColor=none;align=left;verticalAlign=top;spacingLeft=4;spacingRight=4;overflow=hidden;rotatable=0;points=[[0,0.5],[1,0.5]];portConstraint=eastwest;whiteSpace=wrap;html=1;" vertex="1" parent="fGu28cwDlgRmdk9_Jq6V-0">
          <mxGeometry y="258" width="180" height="28" as="geometry" />
        </mxCell>
        <mxCell id="2QzEvBa34yHxyn8QtlNz-9" value="&lt;div&gt;+ getCognome&lt;br&gt;&lt;/div&gt;" style="text;strokeColor=none;fillColor=none;align=left;verticalAlign=top;spacingLeft=4;spacingRight=4;overflow=hidden;rotatable=0;points=[[0,0.5],[1,0.5]];portConstraint=eastwest;whiteSpace=wrap;html=1;" vertex="1" parent="fGu28cwDlgRmdk9_Jq6V-0">
          <mxGeometry y="286" width="180" height="28" as="geometry" />
        </mxCell>
        <mxCell id="2QzEvBa34yHxyn8QtlNz-10" value="&lt;div&gt;+ setEmail&lt;br&gt;&lt;/div&gt;" style="text;strokeColor=none;fillColor=none;align=left;verticalAlign=top;spacingLeft=4;spacingRight=4;overflow=hidden;rotatable=0;points=[[0,0.5],[1,0.5]];portConstraint=eastwest;whiteSpace=wrap;html=1;" vertex="1" parent="fGu28cwDlgRmdk9_Jq6V-0">
          <mxGeometry y="314" width="180" height="28" as="geometry" />
        </mxCell>
        <mxCell id="2QzEvBa34yHxyn8QtlNz-11" value="&lt;div&gt;+ getEmail&lt;br&gt;&lt;/div&gt;" style="text;strokeColor=none;fillColor=none;align=left;verticalAlign=top;spacingLeft=4;spacingRight=4;overflow=hidden;rotatable=0;points=[[0,0.5],[1,0.5]];portConstraint=eastwest;whiteSpace=wrap;html=1;" vertex="1" parent="fGu28cwDlgRmdk9_Jq6V-0">
          <mxGeometry y="342" width="180" height="28" as="geometry" />
        </mxCell>
        <mxCell id="2QzEvBa34yHxyn8QtlNz-12" value="&lt;div&gt;+ setNumeroTelefono&lt;br&gt;&lt;/div&gt;" style="text;strokeColor=none;fillColor=none;align=left;verticalAlign=top;spacingLeft=4;spacingRight=4;overflow=hidden;rotatable=0;points=[[0,0.5],[1,0.5]];portConstraint=eastwest;whiteSpace=wrap;html=1;" vertex="1" parent="fGu28cwDlgRmdk9_Jq6V-0">
          <mxGeometry y="370" width="180" height="28" as="geometry" />
        </mxCell>
        <mxCell id="2QzEvBa34yHxyn8QtlNz-13" value="&lt;div&gt;+ getNumeroTelefono&lt;br&gt;&lt;/div&gt;" style="text;strokeColor=none;fillColor=none;align=left;verticalAlign=top;spacingLeft=4;spacingRight=4;overflow=hidden;rotatable=0;points=[[0,0.5],[1,0.5]];portConstraint=eastwest;whiteSpace=wrap;html=1;" vertex="1" parent="fGu28cwDlgRmdk9_Jq6V-0">
          <mxGeometry y="398" width="180" height="28" as="geometry" />
        </mxCell>
        <mxCell id="2QzEvBa34yHxyn8QtlNz-14" value="&lt;div&gt;+ setTag&lt;br&gt;&lt;/div&gt;" style="text;strokeColor=none;fillColor=none;align=left;verticalAlign=top;spacingLeft=4;spacingRight=4;overflow=hidden;rotatable=0;points=[[0,0.5],[1,0.5]];portConstraint=eastwest;whiteSpace=wrap;html=1;" vertex="1" parent="fGu28cwDlgRmdk9_Jq6V-0">
          <mxGeometry y="426" width="180" height="28" as="geometry" />
        </mxCell>
        <mxCell id="2QzEvBa34yHxyn8QtlNz-15" value="&lt;div&gt;+ getTag&lt;br&gt;&lt;/div&gt;" style="text;strokeColor=none;fillColor=none;align=left;verticalAlign=top;spacingLeft=4;spacingRight=4;overflow=hidden;rotatable=0;points=[[0,0.5],[1,0.5]];portConstraint=eastwest;whiteSpace=wrap;html=1;" vertex="1" parent="fGu28cwDlgRmdk9_Jq6V-0">
          <mxGeometry y="454" width="180" height="28" as="geometry" />
        </mxCell>
        <mxCell id="2QzEvBa34yHxyn8QtlNz-16" value="&lt;div&gt;+ setFoto&lt;br&gt;&lt;/div&gt;" style="text;strokeColor=none;fillColor=none;align=left;verticalAlign=top;spacingLeft=4;spacingRight=4;overflow=hidden;rotatable=0;points=[[0,0.5],[1,0.5]];portConstraint=eastwest;whiteSpace=wrap;html=1;" vertex="1" parent="fGu28cwDlgRmdk9_Jq6V-0">
          <mxGeometry y="482" width="180" height="28" as="geometry" />
        </mxCell>
        <mxCell id="2QzEvBa34yHxyn8QtlNz-17" value="&lt;div&gt;+ getFoto&lt;br&gt;&lt;/div&gt;" style="text;strokeColor=none;fillColor=none;align=left;verticalAlign=top;spacingLeft=4;spacingRight=4;overflow=hidden;rotatable=0;points=[[0,0.5],[1,0.5]];portConstraint=eastwest;whiteSpace=wrap;html=1;" vertex="1" parent="fGu28cwDlgRmdk9_Jq6V-0">
          <mxGeometry y="510" width="180" height="28" as="geometry" />
        </mxCell>
        <mxCell id="fGu28cwDlgRmdk9_Jq6V-4" value="Lista Contatti" style="swimlane;fontStyle=1;align=center;verticalAlign=top;childLayout=stackLayout;horizontal=1;startSize=26;horizontalStack=0;resizeParent=1;resizeParentMax=0;resizeLast=0;collapsible=1;marginBottom=0;whiteSpace=wrap;html=1;" parent="WIyWlLk6GJQsqaUBKTNV-1" vertex="1">
          <mxGeometry x="320" y="-840" width="190" height="144" as="geometry" />
        </mxCell>
        <mxCell id="fGu28cwDlgRmdk9_Jq6V-5" value="&lt;div&gt;- listaContatti: Contatto [0..*]&lt;/div&gt;" style="text;strokeColor=none;fillColor=none;align=left;verticalAlign=top;spacingLeft=4;spacingRight=4;overflow=hidden;rotatable=0;points=[[0,0.5],[1,0.5]];portConstraint=eastwest;whiteSpace=wrap;html=1;" parent="fGu28cwDlgRmdk9_Jq6V-4" vertex="1">
          <mxGeometry y="26" width="190" height="26" as="geometry" />
        </mxCell>
        <mxCell id="fGu28cwDlgRmdk9_Jq6V-6" value="" style="line;strokeWidth=1;fillColor=none;align=left;verticalAlign=middle;spacingTop=-1;spacingLeft=3;spacingRight=3;rotatable=0;labelPosition=right;points=[];portConstraint=eastwest;strokeColor=inherit;" parent="fGu28cwDlgRmdk9_Jq6V-4" vertex="1">
          <mxGeometry y="52" width="190" height="8" as="geometry" />
        </mxCell>
        <mxCell id="2QzEvBa34yHxyn8QtlNz-3" value="&lt;div&gt;- AggiungiContatto&lt;/div&gt;" style="text;strokeColor=none;fillColor=none;align=left;verticalAlign=top;spacingLeft=4;spacingRight=4;overflow=hidden;rotatable=0;points=[[0,0.5],[1,0.5]];portConstraint=eastwest;whiteSpace=wrap;html=1;" vertex="1" parent="fGu28cwDlgRmdk9_Jq6V-4">
          <mxGeometry y="60" width="190" height="28" as="geometry" />
        </mxCell>
        <mxCell id="2QzEvBa34yHxyn8QtlNz-4" value="- AggiungiContattoAListaPreferiti" style="text;strokeColor=none;fillColor=none;align=left;verticalAlign=top;spacingLeft=4;spacingRight=4;overflow=hidden;rotatable=0;points=[[0,0.5],[1,0.5]];portConstraint=eastwest;whiteSpace=wrap;html=1;" vertex="1" parent="fGu28cwDlgRmdk9_Jq6V-4">
          <mxGeometry y="88" width="190" height="28" as="geometry" />
        </mxCell>
        <mxCell id="2QzEvBa34yHxyn8QtlNz-5" value="- RimuoviContatto" style="text;strokeColor=none;fillColor=none;align=left;verticalAlign=top;spacingLeft=4;spacingRight=4;overflow=hidden;rotatable=0;points=[[0,0.5],[1,0.5]];portConstraint=eastwest;whiteSpace=wrap;html=1;" vertex="1" parent="fGu28cwDlgRmdk9_Jq6V-4">
          <mxGeometry y="116" width="190" height="28" as="geometry" />
        </mxCell>
        <mxCell id="fGu28cwDlgRmdk9_Jq6V-12" value="" style="rhombus;whiteSpace=wrap;html=1;" parent="WIyWlLk6GJQsqaUBKTNV-1" vertex="1">
          <mxGeometry x="300" y="-810" width="20" height="20" as="geometry" />
        </mxCell>
        <mxCell id="fGu28cwDlgRmdk9_Jq6V-13" value="" style="endArrow=none;html=1;rounded=0;entryX=0;entryY=0.5;entryDx=0;entryDy=0;exitX=1;exitY=0.5;exitDx=0;exitDy=0;" parent="WIyWlLk6GJQsqaUBKTNV-1" source="2QzEvBa34yHxyn8QtlNz-18" target="fGu28cwDlgRmdk9_Jq6V-12" edge="1">
          <mxGeometry width="50" height="50" relative="1" as="geometry">
            <mxPoint x="280" y="-740" as="sourcePoint" />
            <mxPoint x="420" y="-710" as="targetPoint" />
          </mxGeometry>
        </mxCell>
        <mxCell id="fGu28cwDlgRmdk9_Jq6V-14" value="Lista Contatti Preferiti" style="swimlane;fontStyle=1;align=center;verticalAlign=top;childLayout=stackLayout;horizontal=1;startSize=26;horizontalStack=0;resizeParent=1;resizeParentMax=0;resizeLast=0;collapsible=1;marginBottom=0;whiteSpace=wrap;html=1;" parent="WIyWlLk6GJQsqaUBKTNV-1" vertex="1">
          <mxGeometry x="600" y="-840" width="210" height="86" as="geometry" />
        </mxCell>
        <mxCell id="fGu28cwDlgRmdk9_Jq6V-15" value="- listaContattiPreferiti: Contatto [0..*]" style="text;strokeColor=none;fillColor=none;align=left;verticalAlign=top;spacingLeft=4;spacingRight=4;overflow=hidden;rotatable=0;points=[[0,0.5],[1,0.5]];portConstraint=eastwest;whiteSpace=wrap;html=1;" parent="fGu28cwDlgRmdk9_Jq6V-14" vertex="1">
          <mxGeometry y="26" width="210" height="26" as="geometry" />
        </mxCell>
        <mxCell id="fGu28cwDlgRmdk9_Jq6V-16" value="" style="line;strokeWidth=1;fillColor=none;align=left;verticalAlign=middle;spacingTop=-1;spacingLeft=3;spacingRight=3;rotatable=0;labelPosition=right;points=[];portConstraint=eastwest;strokeColor=inherit;" parent="fGu28cwDlgRmdk9_Jq6V-14" vertex="1">
          <mxGeometry y="52" width="210" height="8" as="geometry" />
        </mxCell>
        <mxCell id="fGu28cwDlgRmdk9_Jq6V-17" value="+ RimuoviContattoDaListaPreferiti" style="text;strokeColor=none;fillColor=none;align=left;verticalAlign=top;spacingLeft=4;spacingRight=4;overflow=hidden;rotatable=0;points=[[0,0.5],[1,0.5]];portConstraint=eastwest;whiteSpace=wrap;html=1;" parent="fGu28cwDlgRmdk9_Jq6V-14" vertex="1">
          <mxGeometry y="60" width="210" height="26" as="geometry" />
        </mxCell>
        <mxCell id="fGu28cwDlgRmdk9_Jq6V-23" value="&lt;div&gt;«interface»&lt;/div&gt;&lt;div&gt;&lt;b&gt;OperazioniRubrica&lt;/b&gt;&lt;br&gt;&lt;/div&gt;" style="swimlane;fontStyle=0;childLayout=stackLayout;horizontal=1;startSize=40;fillColor=none;horizontalStack=0;resizeParent=1;resizeParentMax=0;resizeLast=0;collapsible=1;marginBottom=0;whiteSpace=wrap;html=1;" parent="WIyWlLk6GJQsqaUBKTNV-1" vertex="1">
          <mxGeometry x="490" y="-1060" width="140" height="146" as="geometry" />
        </mxCell>
        <mxCell id="fGu28cwDlgRmdk9_Jq6V-24" value="+ RicercaContatto" style="text;strokeColor=none;fillColor=none;align=left;verticalAlign=top;spacingLeft=4;spacingRight=4;overflow=hidden;rotatable=0;points=[[0,0.5],[1,0.5]];portConstraint=eastwest;whiteSpace=wrap;html=1;" parent="fGu28cwDlgRmdk9_Jq6V-23" vertex="1">
          <mxGeometry y="40" width="140" height="26" as="geometry" />
        </mxCell>
        <mxCell id="fGu28cwDlgRmdk9_Jq6V-25" value="+ ImportListaContatti" style="text;strokeColor=none;fillColor=none;align=left;verticalAlign=top;spacingLeft=4;spacingRight=4;overflow=hidden;rotatable=0;points=[[0,0.5],[1,0.5]];portConstraint=eastwest;whiteSpace=wrap;html=1;" parent="fGu28cwDlgRmdk9_Jq6V-23" vertex="1">
          <mxGeometry y="66" width="140" height="26" as="geometry" />
        </mxCell>
        <mxCell id="fGu28cwDlgRmdk9_Jq6V-26" value="&lt;div&gt;+ ExportListaContatti&lt;/div&gt;" style="text;strokeColor=none;fillColor=none;align=left;verticalAlign=top;spacingLeft=4;spacingRight=4;overflow=hidden;rotatable=0;points=[[0,0.5],[1,0.5]];portConstraint=eastwest;whiteSpace=wrap;html=1;" parent="fGu28cwDlgRmdk9_Jq6V-23" vertex="1">
          <mxGeometry y="92" width="140" height="28" as="geometry" />
        </mxCell>
        <mxCell id="2QzEvBa34yHxyn8QtlNz-2" value="+ ModificaContatto" style="text;strokeColor=none;fillColor=none;align=left;verticalAlign=top;spacingLeft=4;spacingRight=4;overflow=hidden;rotatable=0;points=[[0,0.5],[1,0.5]];portConstraint=eastwest;whiteSpace=wrap;html=1;" vertex="1" parent="fGu28cwDlgRmdk9_Jq6V-23">
          <mxGeometry y="120" width="140" height="26" as="geometry" />
        </mxCell>
        <mxCell id="fGu28cwDlgRmdk9_Jq6V-28" value="" style="endArrow=block;dashed=1;endFill=0;endSize=12;html=1;rounded=0;exitX=0.963;exitY=0;exitDx=0;exitDy=0;exitPerimeter=0;entryX=0.09;entryY=1.086;entryDx=0;entryDy=0;entryPerimeter=0;" parent="WIyWlLk6GJQsqaUBKTNV-1" source="fGu28cwDlgRmdk9_Jq6V-4" target="2QzEvBa34yHxyn8QtlNz-2" edge="1">
          <mxGeometry width="160" relative="1" as="geometry">
            <mxPoint x="350" y="-780" as="sourcePoint" />
            <mxPoint x="510" y="-880" as="targetPoint" />
          </mxGeometry>
        </mxCell>
        <mxCell id="fGu28cwDlgRmdk9_Jq6V-30" value="" style="endArrow=block;dashed=1;endFill=0;endSize=12;html=1;rounded=0;exitX=0.068;exitY=0;exitDx=0;exitDy=0;exitPerimeter=0;entryX=0.874;entryY=1.065;entryDx=0;entryDy=0;entryPerimeter=0;" parent="WIyWlLk6GJQsqaUBKTNV-1" source="fGu28cwDlgRmdk9_Jq6V-14" target="2QzEvBa34yHxyn8QtlNz-2" edge="1">
          <mxGeometry width="160" relative="1" as="geometry">
            <mxPoint x="450" y="-830" as="sourcePoint" />
            <mxPoint x="630" y="-870" as="targetPoint" />
          </mxGeometry>
        </mxCell>
        <mxCell id="fGu28cwDlgRmdk9_Jq6V-31" value="1" style="text;html=1;align=center;verticalAlign=middle;resizable=0;points=[];autosize=1;strokeColor=none;fillColor=none;" parent="WIyWlLk6GJQsqaUBKTNV-1" vertex="1">
          <mxGeometry x="290" y="-830" width="30" height="30" as="geometry" />
        </mxCell>
        <mxCell id="fGu28cwDlgRmdk9_Jq6V-32" value="*" style="text;html=1;align=center;verticalAlign=middle;resizable=0;points=[];autosize=1;strokeColor=none;fillColor=none;" parent="WIyWlLk6GJQsqaUBKTNV-1" vertex="1">
          <mxGeometry x="240" y="-830" width="30" height="30" as="geometry" />
        </mxCell>
        <mxCell id="2QzEvBa34yHxyn8QtlNz-1" value="" style="endArrow=open;endFill=1;endSize=12;html=1;rounded=0;exitX=0;exitY=0.5;exitDx=0;exitDy=0;entryX=1;entryY=0.5;entryDx=0;entryDy=0;" edge="1" parent="WIyWlLk6GJQsqaUBKTNV-1" source="fGu28cwDlgRmdk9_Jq6V-15" target="fGu28cwDlgRmdk9_Jq6V-5">
          <mxGeometry width="160" relative="1" as="geometry">
            <mxPoint x="480" y="-670" as="sourcePoint" />
            <mxPoint x="570" y="-720" as="targetPoint" />
          </mxGeometry>
        </mxCell>
      </root>
    </mxGraphModel>
  </diagram>
</mxfile>
